<!DOCTYPE svg PUBLIC "-//W3C//DTD SVG 1.1//EN" "http://www.w3.org/Graphics/SVG/1.1/DTD/svg11.dtd">
<!-- Uploaded to: SVG Repo, www.svgrepo.com, Transformed by: SVG Repo Mixer Tools -->
<svg fill="#D98943" version="1.1" id="Layer_1" xmlns="http://www.w3.org/2000/svg" xmlns:xlink="http://www.w3.org/1999/xlink" viewBox="0 0 512 512" xml:space="preserve" width="800px" height="800px" stroke="#D98943">
<g id="SVGRepo_bgCarrier" stroke-width="0"/>
<g id="SVGRepo_tracerCarrier" stroke-linecap="round" stroke-linejoin="round"/>
<g id="SVGRepo_iconCarrier"> <g> <g> <path d="M109.335,348.167c6.098,0,14.398,1.583,22.931,4.75v-12.05c-8.533-1.9-16.217-2.85-24.281-2.85 c-12.633,0-22.477,3.358-29.294,10.075c-6.817,6.717-10.283,16.308-10.283,28.775c0,12.233,3.354,21.767,10.121,28.6 c6.767,6.833,16.088,10.25,28.221,10.25c9.938,0,19.117-1.6,25.517-4.8v-11.35c-6.4,3.667-14.612,5.5-21.883,5.5 c-8.098,0-14.308-2.5-18.858-7.5c-4.55-5-6.825-11.967-6.825-20.9c0-9.1,2.117-16.125,6.35-21.075 C95.283,350.642,101.533,348.167,109.335,348.167z"/> </g> </g> <g> <g> <polygon points="360.533,339.2 360.533,390.417 327.296,339.2 313.6,339.2 313.6,413.867 326.4,413.867 326.4,363.317 360.15,413.867 373.333,413.867 373.333,339.2 "/> </g> </g> <g> <g> <rect x="279.467" y="339.2" width="14.933" height="74.667"/> </g> </g> <g> <g> <path d="M452.727,348.517c-6.783-7-15.898-10.5-27.323-10.5c-11.504,0-20.633,3.5-27.4,10.5c-6.769,7-10.154,16.45-10.154,28.35 c0,11.767,3.369,21.183,10.102,28.25c6.731,7.067,15.719,10.6,26.948,10.6c11.769,0,21.044-3.483,27.827-10.45 c6.786-6.967,10.173-16.483,10.173-28.55C462.9,364.917,459.513,355.517,452.727,348.517z M440.771,397.742 c-3.848,5.183-9.071,7.775-15.675,7.775c-6.263,0-11.315-2.625-15.146-7.875c-3.831-5.25-5.752-12.192-5.752-20.825 c0-8.7,1.929-15.65,5.777-20.85c3.85-5.2,8.994-7.8,15.429-7.8c6.365,0,11.477,2.6,15.342,7.8c3.875,5.2,5.804,12.1,5.804,20.7 C446.55,385.533,444.621,392.558,440.771,397.742z"/> </g> </g> <g> <g> <path d="M262.581,381.417c-2.704-3.367-7.648-7.05-14.781-11.05l-5.3-2.95c-3.967-2.233-6.664-4.117-8.098-5.65 c-1.433-1.533-2.15-3.317-2.15-5.35c0-2.467,1.023-4.458,3.071-5.975c2.048-1.517,5.252-2.275,8.65-2.275 c4.402,0,9.894,1.417,18.427,4.25v-11.85c-8.533-1.7-14.529-2.55-20.425-2.55c-7.373,0-13.531,1.85-18.01,5.55 c-4.49,3.7-6.844,8.6-6.844,14.7c0,4.567,1.306,8.558,4.038,11.975c2.729,3.417,7.385,6.992,14.025,10.725l4.933,2.75 c3.994,2.267,6.708,4.225,8.142,5.875c1.433,1.65,2.146,3.675,2.146,6.075c0,3.033-1.144,5.433-3.431,7.2 c-2.277,1.767-5.177,2.65-9.144,2.65c-5.667,0-11.696-1.667-20.229-5v12.7c6.4,1.667,14.546,2.5,20.475,2.5 c8.969,0,15.887-1.95,20.992-5.85c5.094-3.9,7.587-9.283,7.587-16.15C266.654,388.883,265.279,384.783,262.581,381.417z"/> </g> </g> <g> <g> <path d="M182,339.2h-15.404l-28.8,74.667H149l7.698-19.2h30.6l7.706,19.2H210.8L182,339.2z M160.504,384l11.494-29.5L183.5,384 H160.504z"/> </g> </g> <g> <g> <path d="M503.683,275.056c-0.429-1.552-1.027-3.004-2.331-4.146L297.923,92.794c1.069-3.731,1.744-7.656,1.744-11.727 c0-23.527-19.106-42.667-42.633-42.667s-42.65,19.14-42.65,42.667c0,4.071,0.617,7.996,1.685,11.727L12.51,270.91 c-1.304,1.142-2.7,2.594-3.127,4.146C3.973,279.739,0,286.633,0,294.325v153.75C0,462.15,12.538,473.6,26.637,473.6h460.858 c14.1,0,24.504-11.45,24.504-25.525v-153.75C512,286.633,509.092,279.739,503.683,275.056z M257.067,55.467 c14.117,0,25.6,11.483,25.6,25.6s-11.483,25.6-25.6,25.6s-25.6-11.483-25.6-25.6S242.95,55.467,257.067,55.467z M224.262,108.31 c7.833,9.415,19.627,15.423,32.804,15.423c13.175,0,24.971-6.008,32.804-15.423L473.287,268.8H40.846L224.262,108.31z M494.933,448.075c0,4.664-2.748,8.458-7.437,8.458H26.637c-4.69,0-9.571-3.794-9.571-8.458v-153.75 c0-4.665,4.881-8.458,9.571-8.458h460.858c4.69,0,7.437,3.794,7.437,8.458V448.075z"/> </g> </g> </g>
</svg>