<?xml version="1.0" encoding="iso-8859-1"?>

<!DOCTYPE svg PUBLIC "-//W3C//DTD SVG 1.1//EN" "http://www.w3.org/Graphics/SVG/1.1/DTD/svg11.dtd">
<!-- Uploaded to: SVG Repo, www.svgrepo.com, Generator: SVG Repo Mixer Tools -->
<svg version="1.1" id="_x36_" xmlns="http://www.w3.org/2000/svg" xmlns:xlink="http://www.w3.org/1999/xlink" 
	 viewBox="0 0 512 512"  xml:space="preserve">
<g>
	<g>
		<path style="fill:#BA8B30;" d="M512,255.061c0,25.039-3.577,50.457-11.263,75.572c-1.142,3.653-2.283,7.23-3.577,10.807
			c-0.38,1.141-0.761,2.283-1.294,3.424c-2.512,7.001-5.404,13.851-8.524,20.472c-3.349,7.229-7.078,14.232-11.188,21.005
			c-0.913,1.598-1.903,3.197-2.892,4.795c-3.121,5.176-6.469,10.198-10.122,15.069c-1.598,2.283-3.272,4.489-4.947,6.62
			c-6.773,8.752-14.003,16.895-21.766,24.582c-1.979,1.979-3.881,3.805-5.86,5.632c-16.362,15.297-34.704,28.312-54.414,38.814
			c-4.186,2.207-8.448,4.337-12.71,6.316c-10.807,5.099-22.07,9.362-33.562,12.786h-0.076c-5.327,1.598-10.731,3.043-16.21,4.337
			c-2.359,0.532-4.719,1.066-7.078,1.523c-4.54,0.92-9.113,1.68-13.707,2.339c-2.27,0.331-4.558,0.569-6.841,0.838
			c-2.061,0.238-4.118,0.487-6.187,0.674c-3.25,0.305-6.51,0.525-9.781,0.705c-0.831,0.044-1.662,0.083-2.494,0.118
			c-28.44,1.288-57.554-2.051-86.258-10.84c-24.734-7.534-47.489-18.493-67.885-32.192c-16.438-11.035-31.355-23.821-44.521-37.976
			c-9.209-9.894-17.656-20.472-25.114-31.66c-17.428-25.8-30.061-54.72-37.139-85.313c-9.818-42.315-8.98-87.825,4.642-132.346
			C24.854,136.566,49.588,98.361,81.4,68.757c32.801-30.594,73.213-52.131,116.973-62.253c18.686-4.37,38.039-6.468,57.611-6.457
			V0.034c2.588,0,5.175-0.076,7.763,0c2.512,0.076,5.023,0.152,7.458,0.305c0.457,0.076,0.837,0.076,1.218,0.076
			c2.663,0.229,5.327,0.457,7.991,0.685c1.979,0.152,3.958,0.381,6.012,0.685c2.283,0.229,4.566,0.533,6.85,0.914
			c2.663,0.38,5.404,0.836,8.143,1.293c1.37,0.305,2.816,0.533,4.186,0.837c5.099,0.989,10.198,2.207,15.297,3.501
			c0.304,0.076,0.685,0.229,0.989,0.304c2.968,0.761,5.86,1.599,8.828,2.511c5.632,1.675,11.111,3.578,16.439,5.632
			c5.327,1.979,10.578,4.186,15.754,6.546c5.175,2.36,10.274,4.946,15.221,7.611c2.435,1.293,4.87,2.663,7.229,4.11
			c1.979,1.141,3.882,2.283,5.784,3.5c1.522,0.913,3.044,1.903,4.566,2.892l0.076,0.075c1.903,1.219,3.805,2.436,5.632,3.805
			c1.674,1.066,3.272,2.207,4.87,3.425c5.175,3.653,10.122,7.611,14.917,11.644c2.055,1.75,4.034,3.5,6.012,5.327
			c1.218,0.989,2.435,2.131,3.577,3.273c4.262,3.958,8.371,8.067,12.329,12.329c10.046,10.731,19.026,22.299,27.017,34.551
			c16.439,25.039,28.463,52.97,35.237,82.422c0.609,2.587,1.217,5.327,1.674,7.991c0.608,2.662,1.065,5.327,1.522,7.99v0.076
			c0.381,2.435,0.761,4.871,1.142,7.382c0.076,0.532,0.152,1.142,0.228,1.751c0.305,2.359,0.533,4.717,0.761,7.077
			c0.304,2.74,0.533,5.479,0.685,8.22c0.229,2.739,0.381,5.479,0.457,8.218v0.076C511.924,249.734,512,252.397,512,255.061z"/>
		<g>
			<polygon style="fill:#B35757;" points="255.984,255.898 255.984,255.898 255.984,255.898 			"/>
			<polygon style="fill:#B35757;" points="255.984,255.898 255.984,255.898 255.984,255.898 			"/>
			<path style="fill:#B35757;" d="M255.984,255.898l249.384-57.631c-10.143-43.706-31.651-84.135-62.227-116.971L255.984,255.898
				L255.984,255.898z"/>
			<path style="fill:#FFFFFF;" d="M255.984,255.898l244.755,74.772c13.622-44.589,14.462-90.034,4.629-132.403L255.984,255.898
				L255.984,255.898z"/>
			<path style="fill:#B35757;" d="M255.984,255.898l174.602,187.157c31.832-29.641,56.531-67.796,70.153-112.386L255.984,255.898
				L255.984,255.898z"/>
			<polygon style="fill:#B35757;" points="255.984,255.898 255.984,255.898 255.984,255.898 			"/>
			<polygon style="fill:#B35757;" points="255.984,255.898 255.984,255.898 255.984,255.898 			"/>
			<polygon style="fill:#B35757;" points="255.984,255.898 255.984,255.898 255.984,255.898 			"/>
			<polygon style="fill:#B35757;" points="255.984,255.898 255.984,255.898 255.984,255.898 			"/>
			<path style="fill:#B35757;" d="M255.984,255.898l-17.58,16.362l-33.638,31.431l-9.057,8.447l-23.212,21.614l-19.255,18.036
				l-28.539,26.561l-3.957,3.654l-4.11,3.88l-44.445,41.401l-3.349,3.197c-9.209-9.894-17.656-20.472-25.114-31.66
				c-17.428-25.8-30.061-54.72-37.139-85.313l63.699-14.689l5.555-1.293l5.404-1.294l102.132-23.592l43.608-10.046l11.416-2.663
				L255.984,255.898z"/>
			<path style="fill:#FFFFFF;" d="M255.984,255.898L68.827,430.5c29.641,31.832,67.796,56.531,112.386,70.153L255.984,255.898
				L255.984,255.898z"/>
			<path style="fill:#B35757;" d="M255.984,255.898l-74.772,244.755c44.589,13.622,90.034,14.462,132.403,4.629L255.984,255.898
				L255.984,255.898z"/>
			<path style="fill:#FFFFFF;" d="M430.586,443.055L255.984,255.898l57.631,249.384C357.321,495.139,397.75,473.631,430.586,443.055
				z"/>
			<path style="fill:#FFFFFF;" d="M255.984,255.898l-17.58,4.033l-11.416,2.663l-43.608,10.046L81.248,296.233l-5.404,1.294
				l-5.555,1.293L6.59,313.509c-9.818-42.315-8.98-87.825,4.642-132.346l62.482,19.102l5.403,1.598l5.327,1.674l59.285,18.114
				l19.864,6.012l15.373,4.718l13.927,4.262l19.711,6.012l16.667,5.099l9.132,2.74L255.984,255.898z"/>
			<path style="fill:#FFFFFF;" d="M443.125,81.314l-3.881,3.653l-43.913,40.944l-4.109,3.881l-3.957,3.653l-55.937,52.131
				l-9.056,8.447l-48.631,45.434l-17.656,16.44l7.763-25.42l11.112-36.454l2.587-8.447L308.42,84.282l1.598-5.252l1.598-5.403
				l19.102-62.482c5.632,1.675,11.111,3.578,16.439,5.632c5.327,1.979,10.578,4.186,15.754,6.546
				c5.175,2.36,10.274,4.946,15.221,7.611c2.435,1.293,4.87,2.663,7.229,4.11c1.979,1.141,3.882,2.283,5.784,3.5
				c1.522,0.913,3.044,1.903,4.566,2.892l0.076,0.075c1.903,1.219,3.805,2.436,5.632,3.805c1.674,1.066,3.272,2.207,4.87,3.425
				c5.175,3.653,10.122,7.611,14.917,11.644c2.055,1.75,4.034,3.5,6.012,5.327c1.218,0.989,2.435,2.131,3.577,3.273
				C435.058,72.943,439.168,77.053,443.125,81.314z"/>
			<path style="fill:#B35757;" d="M330.719,11.145l-19.102,62.482l-1.598,5.403l-1.598,5.252l-30.975,101.295l-2.587,8.447
				l-11.112,36.454l-7.763,25.42l-2.207-9.438l-0.229-1.142l-5.403-23.364l-6.469-27.931l-1.903-8.447L215.649,81.162l-1.294-5.404
				l-1.294-5.479L198.373,6.503c18.686-4.37,38.039-6.468,57.611-6.457V0.034c2.588,0,5.175-0.076,7.763,0
				c2.512,0.076,5.023,0.152,7.458,0.305c0.457,0.076,0.837,0.076,1.218,0.076c2.663,0.229,5.327,0.457,7.991,0.685
				c1.979,0.152,3.958,0.381,6.012,0.685c2.283,0.229,4.566,0.533,6.85,0.914c2.663,0.38,5.404,0.836,8.143,1.293
				c1.37,0.305,2.816,0.533,4.186,0.837c5.099,0.989,10.198,2.207,15.297,3.501c0.304,0.076,0.685,0.229,0.989,0.304
				C324.859,9.395,327.751,10.233,330.719,11.145z"/>
			<path style="fill:#FFFFFF;" d="M255.984,255.898l-17.58-18.875l-40.107-42.999l-7.915-8.447l-56.622-60.731l-3.881-4.185
				l-3.881-4.11L81.4,68.757c32.801-30.594,73.213-52.131,116.973-62.253l14.689,63.775l1.294,5.479l1.294,5.404l24.125,104.415
				l1.903,8.447l6.469,27.931l5.403,23.364l0.229,1.142L255.984,255.898z"/>
			<path style="fill:#B35757;" d="M255.984,255.898l-17.58-5.404l-9.132-2.74l-16.667-5.099l-19.711-6.012l-13.927-4.262
				l-15.373-4.718l-19.864-6.012l-59.285-18.114l-5.327-1.674l-5.403-1.598l-62.482-19.102
				C24.854,136.566,49.588,98.361,81.4,68.757l44.598,47.794l3.881,4.11l3.881,4.185l56.622,60.731l7.915,8.447l40.107,42.999
				L255.984,255.898z"/>
		</g>
		<circle style="fill:#FFFDF0;" cx="255.984" cy="255.898" r="184.942"/>
		<path style="fill:#B35757;" d="M441.679,212.974c-7.458-32.497-23.288-62.482-46.348-87.063c-2.435-2.588-4.946-5.098-7.534-7.611
			c-21.842-20.929-47.87-36.15-76.181-44.673c-17.808-5.48-36.454-8.295-55.48-8.295c-0.076,0-0.076,0-0.152,0
			c-2.587,0-5.251,0.076-7.839,0.152c-11.948,0.532-23.668,2.055-35.084,4.794c-32.497,7.382-62.406,23.212-87.064,46.272
			c-3.501,3.196-6.926,6.621-10.198,10.198c-19.711,21.385-33.943,46.424-42.086,73.517c-6.241,20.243-9.056,41.629-8.143,63.471
			c0.457,11.948,2.054,23.668,4.718,35.084c7.458,32.497,23.288,62.482,46.347,87.063c2.435,2.588,4.947,5.1,7.534,7.611
			c21.842,20.929,47.87,36.15,76.181,44.674c17.809,5.479,36.454,8.295,55.48,8.295c0.076,0,0.076,0,0.152,0
			c2.588,0,5.251-0.076,7.839-0.152c11.948-0.532,23.668-2.054,35.084-4.795c32.497-7.382,62.406-23.212,87.064-46.271
			c3.501-3.197,6.926-6.621,10.198-10.198c19.711-21.386,33.942-46.424,42.086-73.517c6.241-20.244,9.057-41.63,8.143-63.471
			C445.941,236.111,444.343,224.39,441.679,212.974z M378.208,386.95c-23.136,21.841-51.294,36.682-81.888,43.684
			c-10.731,2.435-21.69,3.958-32.953,4.414c-2.435,0.152-4.947,0.152-7.382,0.152c-0.076,0-0.076,0-0.152,0
			c-18.189,0-35.769-2.664-52.284-7.687c-30.518-9.285-57.611-26.409-78.845-49.164c-21.081-22.603-36.378-50.685-43.455-82.116
			c-2.435-10.655-3.958-21.613-4.414-32.953c-0.837-20.549,1.75-40.641,7.61-59.743c7.687-25.419,21.157-49.011,39.651-69.103
			c3.12-3.349,6.316-6.621,9.665-9.589c23.136-21.842,51.294-36.682,81.889-43.684c10.731-2.435,21.69-3.958,32.953-4.414
			c2.435-0.152,4.947-0.152,7.382-0.152c0.076,0,0.076,0,0.152,0c18.189,0,35.769,2.664,52.284,7.687
			c30.518,9.285,57.611,26.408,78.844,49.163c21.081,22.603,36.378,50.686,43.456,82.117c2.435,10.654,3.957,21.613,4.414,32.953
			c0.837,20.549-1.751,40.64-7.611,59.742c-7.687,25.42-21.157,49.012-39.651,69.104
			C384.753,380.709,381.557,383.981,378.208,386.95z"/>
		<g>
			<path style="fill:#BA8B30;" d="M163.593,227.663c-0.685-0.608-1.294-1.142-2.055-1.674c-4.109-2.968-9.97-4.186-17.809-4.338
				c-0.685-0.076-1.37-0.076-2.054-0.076c-7.611,0-13.623,0.532-17.961,1.141v54.947h15.145v-19.938
				c0.989,0.076,2.359,0.151,3.805,0.151c10.426,0,25.571-3.577,25.571-19.101C168.236,234.513,166.485,230.555,163.593,227.663z
				 M142.284,247.983c-1.522,0-2.511-0.076-3.424-0.152v-15.983c0.837-0.151,2.511-0.38,4.566-0.38c6.088,0,9.817,2.816,9.817,7.914
				C153.243,244.407,149.438,247.983,142.284,247.983z"/>
			<path style="fill:#BA8B30;" d="M229.272,247.755c-0.457-13.166-8.296-26.637-27.169-26.637c-10.503,0-18.418,4.414-23.136,11.263
				c-3.425,4.795-5.251,10.959-5.251,17.505c0,9.132,3.197,17.504,9.666,22.755c4.414,3.653,10.274,5.784,17.732,5.784
				c12.329,0,21.766-5.328,25.875-15.83c1.522-3.805,2.359-8.371,2.359-13.547C229.347,248.592,229.347,248.212,229.272,247.755z
				 M201.646,231.621c5.86,0,9.513,4.642,10.959,11.035c0.532,2.131,0.761,4.414,0.761,6.85c0,10.882-4.034,18.493-11.72,18.493
				c-7.687,0-12.025-7.611-11.949-18.341c0-5.023,1.065-9.665,3.196-13.014C194.796,233.599,197.764,231.621,201.646,231.621z"/>
			<path style="fill:#BA8B30;" d="M278.892,262.9l-6.545-10.806l-3.805-6.165l5.099-6.47l13.699-17.504h-18.037l-5.556,8.524
				l-6.088,9.361c-0.533,0.913-1.066,1.827-1.675,2.741c-0.761,1.293-1.446,2.586-2.131,3.881h-0.305v-24.506h-15.145v55.708h15.145
				v-17.808l1.903-2.206l0.533-0.686l0.229-0.229l0.228-0.304l0.305-0.305l0.38-0.532l0.837-0.914l0.38,0.686l0.837,1.522
				l3.272,5.936l8.143,14.84h17.275L278.892,262.9z"/>
			<path style="fill:#BA8B30;" d="M309.029,267.086v-13.014h20.32v-10.35h-20.32v-11.187h21.461v-10.579h-36.682v55.708h37.976
				v-10.578H309.029z"/>
			<path style="fill:#BA8B30;" d="M383.307,262.062c-1.522-5.328-3.881-8.905-8.448-10.426v-0.305
				c6.164-1.979,11.035-7.153,11.035-13.699c0-4.946-1.826-8.37-4.566-10.654c-5.784-5.023-15.754-5.403-21.766-5.403
				c-6.926,0-13.471,0.532-18.113,1.141v54.947h15.145v-21.69h2.968c5.099,0,7.382,1.751,8.904,8.524
				c1.446,6.622,3.196,11.568,4.033,13.166h15.754C386.96,275.457,385.058,268.074,383.307,262.062z M360.552,246.613h-3.958
				v-15.069c0.837-0.229,2.512-0.38,4.947-0.38c0.381,0,0.838,0,1.218,0.075c0.076,0,0.152,0,0.152,0
				c3.424,0.305,7.762,1.903,7.762,7.459C370.674,243.264,366.945,246.613,360.552,246.613z"/>
		</g>
		<rect x="107.868" y="185.579" style="fill:#BA8B30;" width="296.231" height="8.437"/>
		<rect x="107.868" y="303.696" style="fill:#BA8B30;" width="296.231" height="8.437"/>
		<g>
			<g>
				<path style="fill:#B35757;" d="M197.838,334.442c-6.536-17.684-23.63,0.943-23.63,0.943s-17.094-18.627-23.63-0.943
					c-4.725,12.785,11.746,34.559,23.63,34.559S202.564,347.227,197.838,334.442z"/>
				<g>
					<path style="fill:#B35757;" d="M209.897,356.277c5.367,15.074,19.404-0.804,19.404-0.804s14.037,15.878,19.404,0.804
						c3.88-10.898-9.645-29.457-19.404-29.457C219.542,326.82,206.017,345.379,209.897,356.277z"/>
					<polygon style="fill:#B35757;" points="222.049,371.192 229.301,353.006 236.554,371.192 					"/>
				</g>
				<path style="fill:#B35757;" d="M305.551,347.725c-6.384,8.627-12.781,15.023-21.408,21.408
					c-8.477-6.181-14.724-12.428-20.905-20.905c6.385-8.626,12.782-15.023,21.408-21.408
					C293.123,333.001,299.369,339.247,305.551,347.725z"/>
				<g>
					<g>
						<polygon style="fill:#B35757;" points="332.235,370.879 339.487,350.35 346.74,370.879 						"/>
						<circle style="fill:#B35757;" cx="339.487" cy="338.069" r="11.249"/>
						<g>
							<circle style="fill:#B35757;" cx="328.003" cy="351.662" r="11.249"/>
							<circle style="fill:#B35757;" cx="350.971" cy="351.662" r="11.249"/>
						</g>
					</g>
					<circle style="fill:#B35757;" cx="339.487" cy="350.35" r="4.031"/>
				</g>
			</g>
			<g>
				<path style="fill:#BA8B30;" d="M197.838,334.442c-6.536-17.684-23.63,0.943-23.63,0.943s-17.094-18.627-23.63-0.943
					c-4.725,12.785,11.746,34.559,23.63,34.559S202.564,347.227,197.838,334.442z"/>
				<g>
					<path style="fill:#B35757;" d="M209.897,356.277c5.367,15.074,19.404-0.804,19.404-0.804s14.037,15.878,19.404,0.804
						c3.88-10.898-9.645-29.457-19.404-29.457C219.542,326.82,206.017,345.379,209.897,356.277z"/>
					<polygon style="fill:#B35757;" points="222.049,371.192 229.301,353.006 236.554,371.192 					"/>
				</g>
				<path style="fill:#BA8B30;" d="M305.551,347.725c-6.384,8.627-12.781,15.023-21.408,21.408
					c-8.477-6.181-14.724-12.428-20.905-20.905c6.385-8.626,12.782-15.023,21.408-21.408
					C293.123,333.001,299.369,339.247,305.551,347.725z"/>
				<g>
					<g>
						<polygon style="fill:#B35757;" points="332.235,370.879 339.487,350.35 346.74,370.879 						"/>
						<circle style="fill:#B35757;" cx="339.487" cy="338.069" r="11.249"/>
						<g>
							<circle style="fill:#B35757;" cx="328.003" cy="351.662" r="11.249"/>
							<circle style="fill:#B35757;" cx="350.971" cy="351.662" r="11.249"/>
						</g>
					</g>
					<circle style="fill:#B35757;" cx="339.487" cy="350.35" r="4.031"/>
				</g>
			</g>
		</g>
	</g>
	<path style="opacity:0.07;fill:#040000;" d="M512,255.061c0,25.039-3.577,50.457-11.263,75.572
		c-1.142,3.653-2.283,7.23-3.577,10.807c-0.38,1.141-0.761,2.283-1.294,3.424c-2.512,7.001-5.404,13.851-8.524,20.472
		c-3.349,7.229-7.078,14.232-11.188,21.005c-0.913,1.598-1.903,3.197-2.892,4.795c-3.121,5.176-6.469,10.198-10.122,15.069
		c-1.598,2.283-3.272,4.489-4.947,6.62c-1.598,2.207-3.349,4.338-5.099,6.47c-1.539,1.851-3.169,3.634-4.768,5.442
		c-0.381,0.435-0.76,0.875-1.144,1.306c-3.5,3.903-7.073,7.731-10.755,11.364c-1.979,1.979-3.881,3.805-5.86,5.632
		c-16.362,15.297-34.704,28.312-54.414,38.814c-4.186,2.207-8.448,4.337-12.71,6.316c-10.883,5.023-22.07,9.285-33.562,12.786
		h-0.076c-5.327,1.598-10.731,3.043-16.21,4.337c-2.359,0.532-4.719,1.066-7.078,1.523c-16.515,3.348-33.41,4.946-50.534,4.946
		V0.034c2.588,0,5.175-0.076,7.763,0c2.512,0.076,5.023,0.152,7.458,0.305c0.457,0.076,0.837,0.076,1.218,0.076
		c2.663,0.229,5.327,0.457,7.991,0.685c1.979,0.152,3.958,0.381,6.012,0.685c2.283,0.229,4.566,0.533,6.85,0.914
		c2.663,0.38,5.404,0.836,8.143,1.293c1.37,0.305,2.816,0.533,4.186,0.837c5.099,0.989,10.198,2.207,15.297,3.501
		c0.304,0.076,0.685,0.229,0.989,0.304c2.968,0.761,5.86,1.599,8.828,2.511c5.632,1.675,11.111,3.578,16.439,5.632
		c5.327,1.979,10.578,4.186,15.754,6.546c5.175,2.36,10.274,4.946,15.221,7.611c2.435,1.293,4.87,2.663,7.229,4.11
		c1.979,1.141,3.882,2.283,5.784,3.5c1.522,0.913,3.044,1.903,4.566,2.892l0.076,0.075c1.903,1.219,3.805,2.436,5.632,3.805
		c1.674,1.066,3.272,2.207,4.87,3.425c5.175,3.653,10.122,7.611,14.917,11.644c2.055,1.75,4.034,3.5,6.012,5.327
		c1.218,0.989,2.435,2.131,3.577,3.273c4.262,3.958,8.371,8.067,12.329,12.329c10.046,10.731,19.026,22.299,27.017,34.551
		c16.439,25.039,28.463,52.97,35.237,82.422c0.609,2.587,1.217,5.327,1.674,7.991c0.608,2.662,1.065,5.327,1.522,7.99v0.076
		c0.381,2.435,0.761,4.871,1.142,7.382c0.076,0.532,0.152,1.142,0.228,1.751c0.305,2.359,0.533,4.717,0.761,7.077
		c0.304,2.74,0.533,5.479,0.685,8.22c0.229,2.739,0.381,5.479,0.457,8.218v0.076C511.924,249.734,512,252.397,512,255.061z"/>
</g>
</svg>